<?xml version="1.0" encoding="UTF-8"?>
<svg id="Layer_12" data-name="Layer 12" xmlns="http://www.w3.org/2000/svg" xmlns:xlink="http://www.w3.org/1999/xlink" viewBox="0 0 500 500">
  <defs>
    <clipPath id="clippath">
      <circle cx="249.8" cy="249.71" r="248.52" style="fill: none;"/>
    </clipPath>
  </defs>
  <g style="clip-path: url(#clippath);">
    <g>
      <path d="M244.81,648.96c106.44,0,128.84-16.48,128.84-16.48,0,0-5.05-148.01-5.05-192.13,0-39.93-47.88-72.29-123.79-72.29h-.36c-75.91,0-123.79,32.37-123.79,72.29,0,44.12-5.05,192.13-5.05,192.13,0,0,22.39,16.48,128.84,16.48h.36Z" style="fill: #0a3154;"/>
      <path d="M108.93,290.31c-50.91,11.83-57.08-14.52-57.08-30.85s13.9-33.94,31.37-33.94" style="fill: #e0c8b8;"/>
      <path d="M380.69,290.31c50.91,11.83,57.08-14.52,57.08-30.85,0-16.33-13.9-33.94-31.37-33.94" style="fill: #e0c8b8;"/>
      <path d="M102.24,277.95c-28.66,6.23-34.2-7.65-34.2-16.26s9.89-17.88,19.72-17.88" style="fill: #baa295;"/>
      <path d="M387.64,277.95c28.66,6.23,34.2-7.65,34.2-16.26s-9.89-17.88-19.72-17.88" style="fill: #baa295;"/>
      <path id="head-2" data-name="head" d="M323.18,386.18c11.96-21.56,83.85-120.51,84.46-170.43,1.17-95.96-74.57-168.15-163.16-168.15S80.16,119.78,81.33,215.75c.61,49.92,72.51,148.87,84.46,170.43,20.23,36.48,7.44,104.94,78.69,104.94,64.89,0,58.47-68.45,78.7-104.94Z" style="fill: #e0c8b8;"/>
      <g id="nose">
        <polygon points="273.79 285.17 215.17 285.17 220.63 163.3 268.33 163.3 273.79 285.17" style="fill: #d0b9ea;"/>
        <path d="M273.79,285.17h-58.62v-11.57s9.26-15.81,27-15.81,31.62,15.81,31.62,15.81v11.57Z" style="fill: #9174b5;"/>
      </g>
      <g>
        <circle cx="103.09" cy="234.6" r="5.35" style="fill: #baa295;"/>
        <circle cx="114.57" cy="240.3" r="3.86" style="fill: #baa295;"/>
        <circle cx="104.86" cy="246.87" r="3.86" style="fill: #baa295;"/>
      </g>
      <g>
        <circle cx="386.13" cy="234.6" r="5.35" style="fill: #baa295;"/>
        <circle cx="374.65" cy="240.3" r="3.86" style="fill: #baa295;"/>
        <circle cx="384.36" cy="246.87" r="3.86" style="fill: #baa295;"/>
      </g>
      <path d="M213.65,311.38s8.29,16.58,30.06,16.58,31.61-16.58,31.61-16.58" style="fill: none; stroke: #9174b5; stroke-linecap: round; stroke-miterlimit: 10; stroke-width: 12.24px;"/>
      <g>
        <path d="M177.08,304.51c0-7.84,14.87-14.2,33.2-14.2s33.2,6.36,33.2,14.2-14.87-.57-33.2-.57-33.2,8.41-33.2,.57Z" style="fill: #f46e00;"/>
        <path d="M311.88,304.51c0-7.84-14.87-14.2-33.2-14.2-18.34,0-33.2,6.36-33.2,14.2s14.87-.57,33.2-.57c18.34,0,33.2,8.41,33.2,.57Z" style="fill: #f46e00;"/>
      </g>
      <path d="M302.66,344.24c0,32.13-26.05,58.18-58.18,58.18s-58.18-26.05-58.18-58.18,26.05,2.33,58.18,2.33,58.18-34.46,58.18-2.33Z" style="fill: #f46e00;"/>
      <path d="M245.73,99.95c22.82,0,23.76-1.8,43.38-40.11,10.8-21.08,112.46,82.56,117.93,132.77C423.42,98.73,337.07,26.63,245.66,26.63h.01c-91.41,0-184.19,68.79-162.75,165.37,5.48-50.21,108.5-153.24,119.3-132.16,19.62,38.31,20.57,40.11,43.38,40.11h.12Z" style="fill: #ffe0a9;"/>
      <g>
        <path d="M193.75,201.18c0,38.36-31.1,69.46-69.46,69.46s-69.46-31.1-69.46-69.46,31.1-43.41,69.46-43.41,69.46,5.05,69.46,43.41Z" style="fill: none; stroke: #000; stroke-linecap: round; stroke-miterlimit: 10; stroke-width: 8.09px;"/>
        <path d="M438.38,201.18c0,38.36-31.1,69.46-69.46,69.46s-69.46-31.1-69.46-69.46,31.1-43.41,69.46-43.41,69.46,5.05,69.46,43.41Z" style="fill: none; stroke: #000; stroke-linecap: round; stroke-miterlimit: 10; stroke-width: 8.09px;"/>
        <rect x="193.99" y="187.11" width="105.04" height="17.92"/>
      </g>
      <circle cx="98.53" cy="205.72" r="7.71"/>
      <circle cx="391.89" cy="205.72" r="7.71"/>
    </g>
  </g>
</svg>